<svg id="Layer_1" enable-background="new 0 0 512.163 512.163" height="512" viewBox="0 0 512.163 512.163" width="512" xmlns="http://www.w3.org/2000/svg"><g><g><path d="m445.033.031h-377.704c-37.075 0-67.131 30.07-67.131 67.163v69.189l-.198-.295.198 167.223v175.304c0 18.511 14.999 33.518 33.501 33.518h166.219l26.315-.16.188.16h250.966c19.206 0 34.776-15.577 34.776-34.793v-410.146c0-37.093-30.055-67.163-67.13-67.163z" fill="#273863"/><path d="m444.604.031h-188.078v512.102h222.449c18.329 0 33.188-14.866 33.188-34.737v-409.773c0-37.33-30.247-67.592-67.559-67.592z" fill="#0a0a33"/><path d="m475.021.031h-438.077c-20.404 0-36.944 16.548-36.944 36.962v92.231h511.965v-92.231c0-20.414-16.54-36.962-36.944-36.962z" fill="#e5e9f3"/><path d="m475.021.031h-218.693v129.193h255.638v-92.231c-.001-20.414-16.541-36.962-36.945-36.962z" fill="#b8bedc"/><ellipse cx="64.08" cy="63.813" fill="#f9007b" rx="16.044" ry="16.042"/><ellipse cx="129.316" cy="63.813" fill="#ffde46" rx="16.044" ry="16.042"/><ellipse cx="197.509" cy="63.813" fill="#00ffe7" rx="16.044" ry="16.042"/></g><g><path d="m256.447 278.078-114.33-25.596v124.333c0 3.49 2.098 6.669 5.391 8.168l104.881 47.758c2.568 1.169 5.549 1.17 8.117.002l105.032-47.761c3.295-1.499 5.395-4.679 5.395-8.17v-122.38z" fill="#ff6689"/><path d="m332.464 275.441 35.154-15.891c4.462-2.017 4.41-8.11-.086-10.057l-108.74-47.08c-1.492-.646-3.2-.657-4.701-.03l-59.279 24.756-49.22 20.555c-4.521 1.888-4.661 7.977-.231 10.053l108.586 50.886c1.58.741 3.427.753 5.018.034z" fill="#ff008d"/><path d="m256.526 433.618c1.361-.01 2.721-.298 3.981-.871l105.032-47.761c3.295-1.498 5.395-4.678 5.395-8.17v-122.38l-114.408 23.63z" fill="#ff008d"/><path d="m367.531 249.483-108.74-47.08c-.72-.312-1.492-.468-2.265-.484v107.261c.833-.005 1.667-.174 2.439-.523l73.499-33.226 35.154-15.891c4.462-2.017 4.409-8.11-.087-10.057z" fill="#950049"/></g></g></svg>