<svg xmlns="http://www.w3.org/2000/svg" version="1.1" xmlns:xlink="http://www.w3.org/1999/xlink" width="512" height="512" x="0" y="0" viewBox="0 0 32 32" style="enable-background:new 0 0 512 512" xml:space="preserve"><g><g data-name="Layer 2"><path d="M27 4h-4V3a1 1 0 0 0-2 0v1H11V3a1 1 0 0 0-2 0v1H5a3 3 0 0 0-3 3v20a3 3 0 0 0 3 3h22a3 3 0 0 0 3-3V7a3 3 0 0 0-3-3zM5 6h22a1 1 0 0 1 1 1v3H4V7a1 1 0 0 1 1-1zm22 22H5a1 1 0 0 1-1-1V12h24v15a1 1 0 0 1-1 1z" fill="#ffffff" opacity="1" data-original="#000000"></path><path d="m20.35 15.241-6.3 5.4-2.346-2.345a1 1 0 0 0-1.414 1.414l3 3a1 1 0 0 0 1.357.052l7-6a1 1 0 1 0-1.3-1.518z" fill="#ffffff" opacity="1" data-original="#000000"></path></g></g></svg>