<svg id="Layer_1" enable-background="new 0 0 24 24" viewBox="0 0 24 24" xmlns="http://www.w3.org/2000/svg" xmlns:xlink="http://www.w3.org/1999/xlink"><linearGradient id="SVGID_1_" gradientUnits="userSpaceOnUse" x1="7.5" x2="21.914" y1="8.5" y2="22.914"><stop offset="0" stop-color="#010101" stop-opacity=".1"/><stop offset="1" stop-color="#010101" stop-opacity="0"/></linearGradient><linearGradient id="SVGID_2_" gradientUnits="userSpaceOnUse" x1="-.653" x2="24.653" y1="6.1" y2="17.9"><stop offset="0" stop-color="#fff" stop-opacity=".2"/><stop offset="1" stop-color="#fff" stop-opacity="0"/></linearGradient><g><path d="m21 23h-18c-1.1045696 0-2-.8954296-2-2v-18c0-1.1045696.8954304-2 2-2h18c1.1045704 0 2 .8954304 2 2v18c0 1.1045704-.8954296 2-2 2z" fill="#50205d"/><path d="m21 1h-18c-1.1045532 0-2 .8953857-2 2v.25c0-1.1046143.8954468-2 2-2h18c1.1045532 0 2 .8953857 2 2v-.25c0-1.1046143-.8954468-2-2-2z" fill="#fff" opacity=".2"/><path d="m21 22.75h-18c-1.1045532 0-2-.8954468-2-2v.25c0 1.1045532.8954468 2 2 2h18c1.1045532 0 2-.8954468 2-2v-.25c0 1.1045532-.8954468 2-2 2z" fill="#010101" opacity=".1"/><path d="m15 8.75c0-.9648437-.7851562-1.75-1.75-1.75h-4.25v3.5h4.25c.9648438 0 1.75-.7851562 1.75-1.75zm.9373779-2.7593384c.651062.6359863 1.0626221 1.5296021 1.0626221 2.5093384 0 1.15625-.5634766 2.1835938-1.4301758 2.8212891 1.4272461.6113281 2.4301758 2.0302734 2.4301758 3.6787109 0 2.2060547-1.7944336 4-4 4h-7l4 4h10c1.1045532 0 2-.8954468 2-2v-8zm.0626221 8.7593384c0-1.2402344-1.0092773-2.25-2.25-2.25h-4.75v4.5h4.75c1.2407227 0 2.25-1.0097656 2.25-2.25z" fill="url(#SVGID_1_)"/><path d="m15.5698242 11.3212891c.8666992-.6376953 1.4301758-1.6650391 1.4301758-2.8212891 0-1.9296875-1.5703125-3.5-3.5-3.5h-6.5v14h7c2.2055664 0 4-1.7939453 4-4 0-1.6484375-1.0029297-3.0673828-2.4301758-3.6787109zm-2.3198242-.8212891h-4.25v-3.5h4.25c.9648438 0 1.75.7851563 1.75 1.75s-.7851562 1.75-1.75 1.75zm.5 6.5h-4.75v-4.5h4.75c1.2407227 0 2.25 1.0097656 2.25 2.25s-1.0092773 2.25-2.25 2.25z" fill="#fff"/><path d="m21 23h-18c-1.1045696 0-2-.8954296-2-2v-18c0-1.1045696.8954304-2 2-2h18c1.1045704 0 2 .8954304 2 2v18c0 1.1045704-.8954296 2-2 2z" fill="url(#SVGID_2_)"/></g><g/><g/><g/><g/><g/><g/><g/><g/><g/><g/><g/><g/><g/><g/><g/></svg>