<svg xmlns="http://www.w3.org/2000/svg" viewBox="0 0 16 16" fill="none" aria-hidden="true" class="mr-1.5 size-4"><g filter="url(#filter0_d_5068_3324)"><path fill="#B7B8C2" d="M12.556 2.317a.405.405 0 0 1 .05.626l-1.562 1.561a.462.462 0 0 1-.537.073A3.846 3.846 0 0 0 5.33 9.753a.462.462 0 0 1-.073.538l-1.562 1.561a.405.405 0 0 1-.625-.05 6.838 6.838 0 0 1 9.485-9.485Z"/><path fill="url(#paint0_linear_5068_3324)" fill-opacity=".19" d="M12.556 2.317a.405.405 0 0 1 .05.626l-1.562 1.561a.462.462 0 0 1-.537.073A3.846 3.846 0 0 0 5.33 9.753a.462.462 0 0 1-.073.538l-1.562 1.561a.405.405 0 0 1-.625-.05 6.838 6.838 0 0 1 9.485-9.485Z"/><g filter="url(#filter1_i_5068_3324)"><path fill="#131316" d="M10.89 8.002a2.137 2.137 0 1 1-4.273 0 2.137 2.137 0 0 1 4.274 0Z"/><path fill="url(#paint1_linear_5068_3324)" fill-opacity=".11" d="M10.89 8.002a2.137 2.137 0 1 1-4.273 0 2.137 2.137 0 0 1 4.274 0Z"/><path fill="#131316" d="M12.604 13.06a.405.405 0 0 1-.05.627 6.806 6.806 0 0 1-3.8 1.152 6.806 6.806 0 0 1-3.8-1.152.405.405 0 0 1-.05-.626l1.561-1.562a.462.462 0 0 1 .538-.072 3.83 3.83 0 0 0 1.751.42 3.83 3.83 0 0 0 1.751-.42.462.462 0 0 1 .538.072l1.562 1.562Z"/><path fill="url(#paint2_linear_5068_3324)" fill-opacity=".11" d="M12.604 13.06a.405.405 0 0 1-.05.627 6.806 6.806 0 0 1-3.8 1.152 6.806 6.806 0 0 1-3.8-1.152.405.405 0 0 1-.05-.626l1.561-1.562a.462.462 0 0 1 .538-.072 3.83 3.83 0 0 0 1.751.42 3.83 3.83 0 0 0 1.751-.42.462.462 0 0 1 .538.072l1.562 1.562Z"/></g></g><defs><linearGradient id="paint0_linear_5068_3324" x1="7.433" x2="7.433" y1="1.164" y2="12.195" gradientUnits="userSpaceOnUse"><stop stop-opacity="0"/><stop offset="1"/></linearGradient><linearGradient id="paint1_linear_5068_3324" x1="8.754" x2="8.754" y1="5.865" y2="14.839" gradientUnits="userSpaceOnUse"><stop stop-color="#fff"/><stop offset="1" stop-color="#fff" stop-opacity="0"/></linearGradient><linearGradient id="paint2_linear_5068_3324" x1="8.754" x2="8.754" y1="5.865" y2="14.839" gradientUnits="userSpaceOnUse"><stop stop-color="#fff"/><stop offset="1" stop-color="#fff" stop-opacity="0"/></linearGradient><filter id="filter0_d_5068_3324" width="13.676" height="13.861" x="1.918" y="1.163" color-interpolation-filters="sRGB" filterUnits="userSpaceOnUse"><feFlood flood-opacity="0" result="BackgroundImageFix"/><feColorMatrix in="SourceAlpha" result="hardAlpha" values="0 0 0 0 0 0 0 0 0 0 0 0 0 0 0 0 0 0 127 0"/><feOffset dy=".185"/><feComposite in2="hardAlpha" operator="out"/><feColorMatrix values="0 0 0 0 1 0 0 0 0 1 0 0 0 0 1 0 0 0 1 0"/><feBlend in2="BackgroundImageFix" result="effect1_dropShadow_5068_3324"/><feBlend in="SourceGraphic" in2="effect1_dropShadow_5068_3324" result="shape"/></filter><filter id="filter1_i_5068_3324" width="7.949" height="9.067" x="4.779" y="5.865" color-interpolation-filters="sRGB" filterUnits="userSpaceOnUse"><feFlood flood-opacity="0" result="BackgroundImageFix"/><feBlend in="SourceGraphic" in2="BackgroundImageFix" result="shape"/><feColorMatrix in="SourceAlpha" result="hardAlpha" values="0 0 0 0 0 0 0 0 0 0 0 0 0 0 0 0 0 0 127 0"/><feOffset dy=".185"/><feGaussianBlur stdDeviation=".046"/><feComposite in2="hardAlpha" k2="-1" k3="1" operator="arithmetic"/><feColorMatrix values="0 0 0 0 1 0 0 0 0 1 0 0 0 0 1 0 0 0 0.18 0"/><feBlend in2="shape" result="effect1_innerShadow_5068_3324"/></filter></defs></svg>