<svg xmlns="http://www.w3.org/2000/svg" version="1.1" xmlns:xlink="http://www.w3.org/1999/xlink" width="512" height="512" x="0" y="0" viewBox="0 0 512 512" style="enable-background:new 0 0 512 512" xml:space="preserve"><g><path d="M512 360.12v-51.028l-51.074-5.408a129.262 129.262 0 0 0-15.141-36.526l32.298-39.948-36.082-36.082-39.948 32.298a129.25 129.25 0 0 0-36.526-15.141l-5.408-51.074h-51.028l-5.408 51.074a129.262 129.262 0 0 0-36.526 15.141l-39.948-32.298-36.082 36.082 32.298 39.948a129.25 129.25 0 0 0-15.141 36.526l-51.074 5.408v51.028l51.074 5.408a129.262 129.262 0 0 0 15.141 36.526l-32.298 39.948 36.082 36.082 39.948-32.298a129.25 129.25 0 0 0 36.526 15.141L309.092 512h51.028l5.408-51.074a129.262 129.262 0 0 0 36.526-15.141l39.948 32.298 36.082-36.082-32.298-39.948a129.25 129.25 0 0 0 15.141-36.526L512 360.12zm-177.394 34.263c-33.014 0-59.777-26.763-59.777-59.777 0-33.014 26.763-59.777 59.777-59.777 33.014 0 59.777 26.763 59.777 59.777 0 33.014-26.763 59.777-59.777 59.777z" fill="#ffffff" opacity="1" data-original="#000000"></path><path d="M236.979 114.287a100.876 100.876 0 0 0-11.814-28.5l25.201-31.17-28.154-28.154-31.17 25.201a100.864 100.864 0 0 0-28.5-11.814L158.323 0h-39.815l-4.22 39.851a100.847 100.847 0 0 0-28.5 11.814l-31.17-25.201-28.154 28.154 25.201 31.17a100.864 100.864 0 0 0-11.814 28.5L0 118.507v39.815l39.851 4.22a100.847 100.847 0 0 0 11.814 28.5l-25.201 31.17 28.154 28.154 31.17-25.201a100.864 100.864 0 0 0 28.5 11.814l4.22 39.851h39.815l3.977-37.56-11.47-14.187 19.086-19.086 36.082-36.082 19.085-19.086 14.187 11.47 37.56-3.977v-39.815l-39.851-4.22zm-98.564 70.77c-25.76 0-46.642-20.882-46.642-46.642s20.882-46.642 46.642-46.642 46.642 20.882 46.642 46.642-20.882 46.642-46.642 46.642z" fill="#ffffff" opacity="1" data-original="#000000"></path></g></svg>