<svg width="87" height="24" viewBox="0 0 87 24" fill="none" xmlns="http://www.w3.org/2000/svg" class="inline max-w-22.5 md:max-w-fit"><path fill-rule="evenodd" clip-rule="evenodd" d="M2.61209 0.456958C4.91489 -0.638508 7.68774 0.303137 8.80541 2.56018L12.0478 9.10796L15.3428 2.53941C16.4722 0.287969 19.2499 -0.639834 21.547 0.467103C23.844 1.57404 24.7907 4.29654 23.6613 6.54798L16.1802 21.4616C15.3988 23.0193 13.7801 24.0044 12.0092 24C10.2382 23.9956 8.62465 23.0024 7.85137 21.4409L0.466222 6.52721C-0.651453 4.27017 0.309283 1.55242 2.61209 0.456958ZM35.7397 0.00104913C37.5107 0.00546603 39.1243 0.998625 39.8975 2.56018L47.2827 17.4738C47.9798 18.8816 47.8886 20.542 47.0412 21.8683C46.1938 23.1946 44.7097 24 43.1131 24H28.2469C26.6461 24 25.1586 23.1904 24.3125 21.8585C23.4663 20.5266 23.3813 18.8611 24.0876 17.4531L31.5687 2.53941C32.3501 0.98173 33.9688 -0.00336745 35.7397 0.00104913ZM52.6449 4.5437C52.6449 2.03485 54.72 0.00103441 57.2797 0.00103441H63.8383C63.967 0.00103441 64.0957 0.00628964 64.224 0.0167864L66.0674 0.167642C66.621 0.212949 67.6009 0.342516 68.6318 0.876669C74.0001 3.6583 74.0001 11.2574 68.6318 14.039C67.6009 14.5732 66.621 14.7028 66.0674 14.7481L64.224 14.8989C64.0957 14.9094 63.967 14.9147 63.8383 14.9147H61.9145V19.4573C61.9145 21.9662 59.8394 24 57.2797 24C54.72 24 52.6449 21.9662 52.6449 19.4573V4.5437ZM81.7652 0.00103441C84.325 0.00103441 86.4 2.03485 86.4 4.5437V19.4573C86.4 21.9662 84.325 24 81.7652 24C79.2055 24 77.1305 21.9662 77.1305 19.4573V4.5437C77.1305 2.03485 79.2055 0.00103441 81.7652 0.00103441ZM35.6902 14.9147H35.7118L35.7011 14.8931L35.6902 14.9147Z" fill="#F4F4F5"/></svg>